# Blender v2.83.2 OBJ File: 'kpipe-bent.blend'
# www.blender.org
o Cube_Cube.001
v -0.250000 -0.250000 0.250000
v -0.250000 0.250000 0.250000
v -0.250000 0.250000 -0.250000
v 0.250000 -0.250000 0.250000
v 0.250000 0.250000 0.250000
v 0.250000 0.250000 -0.250000
v -0.250000 -0.750000 -0.250000
v -0.250000 -0.750000 0.250000
v 0.250000 -0.750000 -0.250000
v 0.250000 -0.750000 0.250000
vn -1.0000 0.0000 0.0000
vn 0.0000 0.0000 -1.0000
vn 1.0000 0.0000 0.0000
vn 0.0000 0.0000 1.0000
vn 0.0000 1.0000 0.0000
s off
f 7//1 8//1 1//1
f 9//2 3//2 6//2
f 6//3 4//3 9//3
f 1//4 10//4 4//4
f 3//5 5//5 6//5
f 2//1 3//1 1//1
f 3//1 7//1 1//1
f 9//2 7//2 3//2
f 5//3 4//3 6//3
f 4//3 10//3 9//3
f 1//4 8//4 10//4
f 3//5 2//5 5//5
